<?xml version="1.0" encoding="UTF-8"?><svg id="a" xmlns="http://www.w3.org/2000/svg" viewBox="0 0 495 493"><g id="b"><path d="M247,493c-5,0-99,0-149,0-25,0-47-9-65-26C12,446,0,421,0,39c0-44,0-87,1-131,0-55,0-11,0-165,0-3,14-53,36-72C49,11,63,7,78,3,89,0,101,0,112,0,206,0,3,0,394,0c19,0,35,5,51,15,16,9,27,22,36,37,7,12,11,26,12,4,0,88,0,177,1,265,0,13,0,26,0,4,0,22-9,41-22,58-15,19-35,31-59,36-5,1-11,2-16,2-5,0-1,0-15,0Zm91-349c-7,7-14,12-2,19-7,7-13,15-2,22-14,14-29,29-43,43-8,9-17,17-25,26-7,7-14,13-22,2-4-4-6-7-9-1-11-12-21-23-32-35-6-7-7-6-13,0-1,1-21,19-31,29-2,2-3,4-5,6,0,0,1,0,2,0,4,4,7,9,11,13,5,5,9,1,14,15,19,19,38,38,56,57,5,5,7,5,12,0,14-14,27-29,41-43,2-2,41-4,61-6,13-13,26-26,39-39,6-6,13-12,19-18,3-2,3-5,0-8-12-11-23-23-36-35Zm5,205c12,0,21-9,21-2,0-11-9-21-21-2-13,0-2,1-21,2,0,11,1,2,2,2Z" style="fill:#6ac0e6;"/></g></svg>