<?xml version="1.0" encoding="UTF-8"?><svg id="a" xmlns="http://www.w3.org/2000/svg" viewBox="0 0 496 496"><path d="M434,0H62C28,0,0,28,0,62v82l84,49c6,4,14,4,21,0,5-3,165-96,167-97,5-3,11-3,15,0,3,2,12,7,17,1,5,3,5,1,0,13L105,235c-7,4-14,4-22,0-12-7-63-37-84-49v37l84,49c6,4,14,4,21,0,5-3,165-96,167-97,5-3,11-3,15,0,3,2,12,7,17,1,5,3,5,1,0,13l-199,116h0c-7,4-14,4-22,0-12-7-63-37-84-49v42l84,49c6,4,14,4,21,0,5-3,165-96,167-97,5-3,11-3,15,0,3,2,12,7,17,1,5,3,5,1,0,13l-199,116h0c-7,4-14,4-22,0-12-7-63-37-84-49v84c0,34,28,62,62,62H434c34,0,62-28,62-62V62c0-34-28-62-62-62Z" style="fill:#e44332; fill-rule:evenodd;"/></svg>