<?xml version="1.0" encoding="utf-8"?>
<!-- Generator: Adobe Illustrator 26.5.0, SVG Export Plug-In . SVG Version: 6.00 Build 0)  -->
<svg version="1.1" id="Layer_1" xmlns="http://www.w3.org/2000/svg" xmlns:xlink="http://www.w3.org/1999/xlink" x="0px" y="0px"
	 viewBox="0 0 512 512" style="enable-background:new 0 0 512 512;" xml:space="preserve">
<g id="dqtLAq_00000045602136745536539390000014107157570198090658_">
	<g>
		<path d="M256.3,27.7C306,28.3,351.2,42.9,391.6,72c13.5,9.7,18.7,28.3,12.5,44.2c-6.2,16-22.8,26-39.6,24.1
			c-7.5-0.8-14.1-3.6-20.2-7.9c-22.4-16.1-47.2-25.1-74.7-27.8c-61.2-6-121.2,26-149.4,81.8c-28.3,55.8-19.3,122.5,25.1,169.1
			c24.8,26.1,55.4,41.1,91,46.3c6.3,0.9,13,1.6,18.8,4.2c17.4,7.9,25.3,25.7,20.6,44.4c-4.1,16.3-20.4,28.4-38.2,27.6
			c-23.9-1.2-47-6.8-69-16.1c-67-28.5-112.6-77.1-132.5-147.3c-20.4-72.2-6.8-139.1,39-198.8c31.3-40.8,72.6-67,122.2-80.3
			C216.5,30.1,236.2,27.6,256.3,27.7z"/>
		<path d="M255.5,345.1c-52.8,0.1-94.5-42.9-92.9-94c1.7-52.3,44.7-91.4,96.7-89.5c49.2,1.7,90.5,42.2,89.3,93.6
			C347.3,308.7,302.7,345.7,255.5,345.1z"/>
		<path d="M466,175.4c0,20.3-17.1,37.2-37.7,37.3c-20.6,0.1-38.2-17-38.1-37.4c0.1-21.9,18.7-38.1,38.8-37.6
			C449.5,138.2,466,154.6,466,175.4z"/>
		<path d="M299.1,425.4c-1.2-19.6,16.5-37.6,37.4-37.6c21,0,37.8,16.3,38.2,37.2c0.3,20.4-17,37.6-37.8,37.7
			C315.8,462.7,299.2,446.4,299.1,425.4z"/>
		<path d="M449.2,362.3c-0.2,21.7-16.6,37.6-38.7,37.4c-20.4-0.2-36.8-17-36.6-37.5c0.2-21.1,17-37.6,38.3-37.4
			C433,325,449.4,341.6,449.2,362.3z"/>
		<path d="M406.9,270.8c-0.1-20.7,16.3-37.1,37.3-37.2c21.5-0.1,37.9,15.8,38,37c0.2,20.9-16.5,37.8-37.6,37.7
			C421.3,308.2,405.8,288.7,406.9,270.8z"/>
	</g>
</g>
</svg>
